HIERARCHY
ROOT Hips
{
	OFFSET -3.958830 18.904000 13.208200
	CHANNELS 6 Xposition Yposition Zposition Zrotation Yrotation Xrotation 
	JOINT LHipJoint
	{
		OFFSET 0.000000 0.000000 0.000000
		CHANNELS 3 Zrotation Yrotation Xrotation
		JOINT LeftUpLeg
		{
			OFFSET 1.800000 -1.400000 0.085000
			CHANNELS 3 Zrotation Yrotation Xrotation
			JOINT LeftLeg
			{
				OFFSET 2.215000 -6.000000 0.000000
				CHANNELS 3 Zrotation Yrotation Xrotation
				JOINT LeftFoot
				{
					OFFSET 2.500000 -6.900000 0.000000
					CHANNELS 3 Zrotation Yrotation Xrotation
					JOINT LeftToeBase
					{
						OFFSET 0.200000 -0.500000 1.950000
						CHANNELS 3 Zrotation Yrotation Xrotation
						End Site
						{
							OFFSET 0.000000 0.000000 0.000000
						}
					}
				}
			}
		}
	}
	JOINT RHipJoint
	{
		OFFSET 0.000000 0.000000 0.000000
		CHANNELS 3 Zrotation Yrotation Xrotation
		JOINT RightUpLeg
		{
			OFFSET -1.800000 -1.400000 0.085000
			CHANNELS 3 Zrotation Yrotation Xrotation
			JOINT RightLeg
			{
				OFFSET -2.215000 -6.000000 0.000000
				CHANNELS 3 Zrotation Yrotation Xrotation
				JOINT RightFoot
				{
					OFFSET -2.500000 -6.900000 0.000000
					CHANNELS 3 Zrotation Yrotation Xrotation
					JOINT RightToeBase
					{
						OFFSET -0.200000 -0.500000 1.950000
						CHANNELS 3 Zrotation Yrotation Xrotation
						End Site
						{
							OFFSET 0.000000 0.000000 0.000000
						}
					}
				}
			}
		}
	}
	JOINT LowerBack
	{
		OFFSET 0.000000 0.000000 0.000000
		CHANNELS 3 Zrotation Yrotation Xrotation
		JOINT Spine
		{
			OFFSET -0.087000 1.940000 -0.288900
			CHANNELS 3 Zrotation Yrotation Xrotation
			JOINT Spine1
			{
				OFFSET 0.000000 1.950000 0.060000
				CHANNELS 3 Zrotation Yrotation Xrotation
				JOINT Neck
				{
					OFFSET 0.000000 0.000000 0.000000
					CHANNELS 3 Zrotation Yrotation Xrotation
					JOINT Neck1
					{
						OFFSET 0.000000 1.600000 0.340000
						CHANNELS 3 Zrotation Yrotation Xrotation
						JOINT Head
						{
							OFFSET 0.000000 1.667000 -0.240000
							CHANNELS 3 Zrotation Yrotation Xrotation
							End Site
							{
								OFFSET 0.000000 0.000000 0.000000
							}
						}
					}
				}
				JOINT LeftShoulder
				{
					OFFSET 0.000000 0.000000 0.000000
					CHANNELS 3 Zrotation Yrotation Xrotation
					JOINT LeftArm
					{
						OFFSET 2.700000 1.550000 -0.730000
						CHANNELS 3 Zrotation Yrotation Xrotation
						JOINT LeftForeArm
						{
							OFFSET 5.450000 0.000000 0.000000
							CHANNELS 3 Zrotation Yrotation Xrotation
							JOINT LeftHand
							{
								OFFSET 3.450000 0.000000 0.000000
								CHANNELS 3 Zrotation Yrotation Xrotation
								JOINT LeftHandIndex1
								{
									OFFSET 0.750000 0.000000 0.000000
									CHANNELS 3 Zrotation Yrotation Xrotation
									End Site
									{
										OFFSET 0.000000 0.000000 0.000000
									}
								}
							}
						}
					}
				}
				JOINT RightShoulder
				{
					OFFSET 0.000000 0.000000 0.000000
					CHANNELS 3 Zrotation Yrotation Xrotation
					JOINT RightArm
					{
						OFFSET -2.700000 1.550000 -0.730000
						CHANNELS 3 Zrotation Yrotation Xrotation
						JOINT RightForeArm
						{
							OFFSET -5.450000 0.000000 0.000000
							CHANNELS 3 Zrotation Yrotation Xrotation
							JOINT RightHand
							{
								OFFSET -3.450000 0.000000 0.000000
								CHANNELS 3 Zrotation Yrotation Xrotation
								JOINT RightHandIndex1
								{
									OFFSET -0.750000 0.000000 0.000000
									CHANNELS 3 Zrotation Yrotation Xrotation
									End Site
									{
										OFFSET 0.000000 0.000000 0.000000
									}
								}
							}
						}
					}
				}
			}
		}
	}
}
MOTION
Frames: 6
Frame Time: 0.016667
-0.020030 17.130630 -5.372630 -7.068428 -35.576693 11.241583 -15.226183 13.133411 3.302264 4.153724 -2.024179 -16.220406 -15.824221 6.852815 8.866121 -0.380247 4.857499 3.243708 0.263260 0.002980 0.067230 18.311531 -10.733938 2.218941 1.110791 2.680138 -10.604376 -3.440495 -3.772980 34.029351 -0.463399 -5.285467 2.687501 0.188110 0.862180 0.338560 -3.414608 -2.171508 -6.393686 3.531763 0.146488 1.809266 -1.914140 -0.352791 0.815890 -0.564404 -8.456625 -5.356652 -15.525673 19.949273 16.972738 1.271010 13.129860 -2.456100 -13.356219 10.352384 -0.078056 -59.161971 0.673075 -3.017699 -24.033838 -13.079673 0.544669 -4.239051 2.906083 0.270070 0.540500 -0.260820 0.402890 14.975989 -3.800422 1.475291 54.952158 -0.197751 -16.891062 -68.553092 72.219064 -43.981874 0.784910 0.171458 -0.377800 0.413240 0.023620 -0.022050 
0.001340 17.131620 -5.387870 -7.068138 -35.840566 11.179486 -15.220781 13.131982 3.312022 4.211889 -2.107169 -16.783421 -15.937744 7.040098 9.602776 -0.339290 4.877338 3.222481 0.263750 0.004430 0.056910 18.312676 -10.736666 2.234718 1.269393 2.591965 -10.216193 -3.212563 -3.922680 34.144937 -0.482782 -5.342114 2.668400 0.170470 0.848330 0.360490 -3.420917 -2.171880 -6.415204 3.631774 0.191940 2.000191 -2.047291 -0.297685 0.669304 -0.479870 -8.593474 -5.434896 -15.811298 19.949744 17.226326 1.129970 13.268040 -1.959850 -13.384052 10.505141 0.010181 -58.868270 0.955804 -3.278802 -24.844938 -14.563711 0.922406 -4.216396 2.961672 0.257010 0.537230 -0.249690 0.408950 14.826226 -3.854664 1.522961 54.761882 -0.498838 -16.225452 -72.764641 70.511660 -45.722745 0.788664 0.233738 -0.346370 0.374240 0.015240 -0.009910 
0.044230 17.133720 -5.421310 -6.999053 -36.548447 10.762644 -15.214454 13.109172 3.367593 4.803064 -2.235355 -17.760414 -16.944180 7.643047 11.157277 -0.254620 5.017812 3.110725 0.334820 0.095470 0.085820 18.311596 -10.727477 2.248589 1.435025 2.236270 -8.834315 -2.383815 -4.393147 33.978346 -0.567310 -5.403160 2.636114 0.176570 0.751690 0.383150 -3.433280 -2.199456 -6.480856 3.742035 0.214833 2.641439 -2.635518 -0.204867 0.686905 -0.400774 -9.094547 -5.662786 -16.947911 20.101245 18.037609 1.473570 13.153970 -3.386780 -13.489388 10.602986 0.146867 -58.329554 1.142595 -3.833549 -25.535863 -17.793150 1.638751 -4.102698 3.045560 0.287080 0.462710 -0.170450 0.419850 14.690048 -3.621735 1.752364 54.409171 -1.102115 -14.924113 -79.926864 66.941450 -48.959352 0.889446 0.216963 -0.268090 0.318700 -0.028250 0.002630 
0.081720 17.128750 -5.477280 -6.944229 -37.848957 10.203333 -15.215523 13.017754 3.517061 6.368113 -2.394579 -19.555344 -19.218904 8.927574 13.641448 -0.105222 5.439752 2.890773 0.415830 0.211090 0.116350 18.305244 -10.684160 2.277671 2.001086 1.807505 -7.200573 -2.021233 -4.585314 33.362790 -0.655152 -5.372481 2.653935 0.191190 0.636040 0.373160 -3.437312 -2.198655 -6.634226 3.447066 0.331256 3.772161 -3.143630 0.069981 0.510986 -0.364071 -9.570360 -6.165946 -18.120732 20.309690 19.157176 2.161230 12.970450 -5.491650 -13.011061 10.727737 0.730333 -57.119066 2.275231 -4.828939 -29.451355 -23.988661 3.629658 -3.912885 3.158717 0.339000 0.358540 -0.071740 0.446020 14.097847 -3.277333 1.961394 53.838990 -1.545909 -14.034528 -82.988350 63.503249 -49.258809 1.074447 -0.049567 -0.199730 0.284700 -0.097200 0.019460 
0.116670 17.116990 -5.542140 -6.888192 -39.248967 9.917474 -15.246850 12.811956 3.761602 8.462921 -2.653296 -22.164815 -22.013471 10.577095 16.389190 0.044522 6.121790 2.584486 0.472790 0.275480 0.172840 18.294863 -10.579867 2.286347 2.608769 1.177520 -5.412353 -1.421991 -4.741077 31.154556 -0.695165 -5.187187 2.708627 0.197930 0.540450 0.376070 -3.431254 -2.163617 -6.812532 2.933218 0.495876 4.829609 -3.988685 0.368180 0.099179 -0.185283 -9.739361 -6.203451 -18.563083 20.121414 19.967578 1.868910 12.955460 -7.749860 -12.944735 11.311394 0.650907 -54.782124 2.940739 -5.008249 -33.881671 -27.208062 5.494535 -3.803330 3.239013 0.386840 0.285130 0.002820 0.440350 13.583228 -3.690220 1.916640 53.453768 -2.370125 -14.104135 -82.363761 61.971510 -47.268524 1.154781 -0.233409 -0.156910 0.258340 -0.136340 0.009360 
0.147500 17.082630 -5.616680 -6.030139 -40.334174 9.416708 -15.346382 12.503724 4.154600 10.599136 -3.141810 -26.039418 -25.152925 12.890771 20.244774 0.228675 7.132378 2.178651 0.538850 0.344150 0.237810 18.254703 -10.378616 2.238102 3.120641 0.558127 -3.932453 -1.412343 -4.545586 28.264806 -0.705707 -4.908734 2.784835 0.226620 0.474900 0.382170 -3.312569 -2.208044 -7.021052 1.024677 0.834111 5.675421 -4.426624 0.812115 -0.061922 -0.102428 -9.548876 -6.148177 -18.203534 19.999433 20.296177 2.154340 12.773460 -9.837810 -12.202813 11.589288 0.336227 -52.434810 2.427425 -4.458519 -37.032940 -26.928335 6.283153 -3.741622 3.289392 0.424330 0.234100 0.056590 0.437000 12.707047 -3.974963 1.928839 52.333956 -3.397167 -14.753017 -79.155362 62.119164 -44.214525 1.150245 -0.333539 -0.130130 0.250480 -0.169950 -0.003360 
